<svg width="34" height="63" viewBox="0 0 34 63" fill="none" xmlns="http://www.w3.org/2000/svg">
<path d="M32.772 5.52187C33.0539 5.22353 33.2743 4.87257 33.4206 4.48904C33.5669 4.10552 33.6362 3.69693 33.6246 3.28661C33.613 2.87629 33.5207 2.47228 33.3529 2.09763C33.1852 1.72299 32.9453 1.38506 32.647 1.10313C32.3486 0.821193 31.9977 0.600786 31.6141 0.454488C31.2306 0.30819 30.822 0.238864 30.4117 0.250472C30.0014 0.262079 29.5974 0.354391 29.2227 0.522137C28.8481 0.689883 28.5101 0.929778 28.2282 1.22812L1.66572 29.3531C1.11717 29.9333 0.811523 30.7015 0.811523 31.5C0.811523 32.2985 1.11717 33.0667 1.66572 33.6469L28.2282 61.775C28.5083 62.0799 28.8461 62.3261 29.2222 62.4993C29.5982 62.6725 30.0049 62.7692 30.4186 62.7839C30.8323 62.7986 31.2449 62.731 31.6322 62.5849C32.0196 62.4388 32.3741 62.2172 32.6751 61.933C32.9761 61.6488 33.2176 61.3075 33.3856 60.9292C33.5536 60.5508 33.6448 60.1428 33.6538 59.7289C33.6628 59.315 33.5895 58.9035 33.4381 58.5182C33.2867 58.1328 33.0603 57.7814 32.772 57.4844L8.23447 31.5L32.772 5.52187Z" fill="#F8F8F8"/>
</svg>
